<?xml version="1.0" standalone="no"?>
<!DOCTYPE svg PUBLIC "-//W3C//DTD SVG 20010904//EN"
 "http://www.w3.org/TR/2001/REC-SVG-20010904/DTD/svg10.dtd">
<svg version="1.0" xmlns="http://www.w3.org/2000/svg"
 width="2084.000000pt" height="2084.000000pt" viewBox="0 0 2084.000000 2084.000000"
 preserveAspectRatio="xMidYMid meet">
<metadata>
Created by potrace 1.14, written by Peter Selinger 2001-2017
</metadata>
<g transform="translate(0.000000,2084.000000) scale(0.100000,-0.100000)"
fill="#000000" stroke="none">
<path d="M13500 13388 l-2365 -1583 -3 -2778 -2 -2777 235 0 235 0 2 2651 3
2651 2120 1419 c1165 781 2122 1418 2126 1417 4 -2 894 -711 1979 -1577 l1971
-1574 -3 -711 c-4 -696 -4 -713 -26 -791 -77 -281 -260 -433 -553 -460 -242
-22 -428 97 -484 310 -13 51 -15 171 -15 842 l0 783 -230 0 -230 0 0 -785 c0
-957 5 -1019 101 -1214 81 -165 247 -291 446 -338 114 -26 448 -26 548 1 146
39 266 109 373 217 34 34 62 67 62 71 0 4 5 8 10 8 6 0 10 -39 10 -97 0 -54 3
-115 6 -135 l7 -38 223 0 224 0 0 1283 0 1283 -2191 1750 c-1206 962 -2197
1750 -2203 1752 -6 1 -1076 -710 -2376 -1580z"/>
<path d="M13430 12085 l0 -175 95 0 95 0 0 -171 0 -171 273 5 c303 5 388 18
529 76 162 68 269 150 346 265 60 89 91 176 99 274 l6 72 -207 0 -206 0 0 -28
c0 -93 -88 -211 -193 -261 -62 -29 -121 -44 -209 -56 l-48 -6 0 175 0 176
-290 0 -290 0 0 -175z"/>
<path d="M16195 11234 c-141 -31 -295 -111 -401 -207 -138 -126 -220 -298
-239 -500 l-7 -77 246 0 246 0 0 33 c0 43 23 126 50 182 30 61 117 139 182
162 71 24 205 24 275 0 98 -34 174 -122 209 -242 16 -55 18 -130 21 -872 l4
-813 229 0 230 0 0 824 c0 888 -1 916 -54 1060 -77 213 -241 360 -481 432 -80
23 -110 27 -265 30 -131 3 -192 0 -245 -12z"/>
<path d="M12737 10873 c-10 -510 -8 -1046 4 -1169 46 -463 278 -738 694 -825
189 -40 473 -35 660 12 101 25 263 104 338 165 161 129 268 359 297 635 6 60
10 391 10 810 l0 709 -235 0 -235 0 0 -730 c0 -807 -1 -820 -62 -950 -39 -82
-131 -175 -212 -214 -152 -73 -380 -70 -531 6 -111 57 -187 150 -234 286 l-26
77 -3 763 -3 762 -228 0 -228 0 -6 -337z"/>
<path d="M12730 7000 l0 -660 334 0 c183 0 356 4 385 10 171 32 295 171 308
343 11 141 -46 255 -155 315 l-62 34 39 28 c85 62 121 139 121 259 0 99 -34
176 -107 242 -85 76 -166 89 -585 89 l-278 0 0 -660z m695 470 c64 -32 95 -88
95 -171 0 -80 -32 -136 -95 -169 -48 -24 -56 -25 -277 -28 l-228 -3 0 201 0
202 228 -3 c218 -4 229 -5 277 -29z m15 -554 c90 -34 134 -98 133 -194 -1 -86
-32 -146 -98 -187 l-48 -30 -254 -3 -253 -3 0 221 0 222 238 -4 c191 -4 246
-8 282 -22z"/>
<path d="M14785 7648 c-87 -244 -455 -1295 -455 -1301 0 -4 44 -6 97 -5 l97 3
182 550 c100 303 184 543 187 535 9 -22 357 -1080 357 -1085 0 -8 200 -5 200
3 0 4 -102 301 -227 660 l-227 652 -103 0 c-74 0 -105 -4 -108 -12z"/>
<path d="M16207 7017 c-124 -354 -229 -651 -233 -660 -5 -15 5 -17 93 -17 l99
0 178 543 c98 298 181 545 185 549 4 4 87 -238 186 -538 99 -301 184 -548 190
-551 7 -2 52 -2 102 -1 l91 3 -228 655 -228 655 -104 3 -104 3 -227 -644z"/>
<path d="M17730 7000 l0 -660 95 0 95 0 0 527 0 527 318 -525 318 -524 107 -3
107 -3 0 661 0 660 -90 0 -90 0 -2 -531 -3 -532 -320 529 -320 529 -107 3
-108 3 0 -661z"/>
</g>
</svg>
